<?xml version="1.0" encoding="UTF-8"?>
<svg width="109px" height="101px" viewBox="0 0 109 101" version="1.1" xmlns="http://www.w3.org/2000/svg" xmlns:xlink="http://www.w3.org/1999/xlink">
    <!-- Generator: Sketch 50.2 (55047) - http://www.bohemiancoding.com/sketch -->
    <title>logo</title>
    <desc>Created with Sketch.</desc>
    <defs></defs>
    <g id="Page-1" stroke="none" stroke-width="1" fill="none" fill-rule="evenodd">
        <g id="3-copy" transform="translate(-345.000000, -160.000000)" fill-rule="nonzero">
            <g id="logo" transform="translate(400.680592, 205.753697) rotate(-45.000000) translate(-400.680592, -205.753697) translate(361.680592, 166.253697)">
                <path d="M2.5,3.5 L2.5,75.8126625 L29.9214391,75.8126625 L29.9214391,3.5 L2.5,3.5 Z M0,1 L32.4214391,1 L32.4214391,78.3126625 L0,78.3126625 L0,1 Z" id="Rectangle-3" fill="#FEFEFE"></path>
                <path d="M38.6416399,82.0475831 L66.063079,82.0475831 L66.063079,42.1563597 L38.6416399,42.1563597 L38.6416399,82.0475831 Z M36.1416399,39.6563597 L68.563079,39.6563597 L68.563079,84.5475831 L36.1416399,84.5475831 L36.1416399,39.6563597 Z" id="Rectangle-3-Copy" fill="#FEFEFE" transform="translate(52.352359, 62.101971) rotate(-270.000000) translate(-52.352359, -62.101971) "></path>
                <path d="M53.5364548,47.8483302 C40.4497298,47.8483302 29.8408431,37.2394434 29.8408431,24.1527185 C29.8408431,11.0659935 40.4497298,0.457106781 53.5364548,0.457106781 C66.6231798,0.457106781 77.2320665,11.0659935 77.2320665,24.1527185 C77.2320665,37.2394434 66.6231798,47.8483302 53.5364548,47.8483302 Z M53.5364548,45.3483302 C65.2424679,45.3483302 74.7320665,35.8587316 74.7320665,24.1527185 C74.7320665,12.4467054 65.2424679,2.95710678 53.5364548,2.95710678 C41.8304417,2.95710678 32.3408431,12.4467054 32.3408431,24.1527185 C32.3408431,35.8587316 41.8304417,45.3483302 53.5364548,45.3483302 Z" id="Oval" fill="#FFFFFF"></path>
            </g>
        </g>
    </g>
</svg>